# Blender 3.4.1
# www.blender.org
mtllib pleasework.mtl
o Cube.001
v 1.500000 0.250000 -4.000000
v 1.500000 -0.250000 -4.000000
v 1.500000 0.250000 4.000000
v 1.500000 -0.250000 4.000000
v -1.500000 0.250000 -4.000000
v -1.500000 -0.250000 -4.000000
v -1.500000 0.250000 4.000000
v -1.500000 -0.250000 4.000000
vn -0.0000 1.0000 -0.0000
vn -0.0000 -0.0000 1.0000
vn -1.0000 -0.0000 -0.0000
vn -0.0000 -1.0000 -0.0000
vn 1.0000 -0.0000 -0.0000
vn -0.0000 -0.0000 -1.0000
vt 0.333134 0.999800
vt 0.000200 0.333533
vt 0.666866 0.333134
vt 0.000200 0.333134
vt 0.000200 0.666467
vt 0.666866 0.000200
vt 0.333134 0.666866
vt 0.333533 0.000200
vt 0.333134 0.333533
vt 0.333533 0.333134
vt 0.000200 0.000200
vt 0.333134 0.666467
vt 0.000200 0.999800
vt 0.333533 0.666467
vt 0.999800 0.333134
vt 0.333533 0.333533
vt 0.333134 0.333134
vt 0.999800 0.000200
vt 0.000200 0.666866
vt 0.666467 0.000200
vt 0.666467 0.666467
vt 0.666467 0.333134
vt 0.666467 0.333533
vt 0.333134 0.000200
s 0
usemtl Material.003
f 1/1/1 5/13/1 7/19/1 3/7/1
f 4/10/2 3/8/2 7/20/2 8/22/2
f 8/23/3 7/21/3 5/14/3 6/16/3
f 6/17/4 2/4/4 4/11/4 8/24/4
f 2/5/5 1/2/5 3/9/5 4/12/5
f 6/18/6 5/15/6 1/3/6 2/6/6
